<svg width="256" height="36" viewBox="0 0 256 36" fill="none" xmlns="http://www.w3.org/2000/svg">
<path d="M251.591 8.31722C250.973 8.31722 250.603 8.56645 250.437 9.10764L246.562 20.4619L242.112 9.10764C241.908 8.56645 241.576 8.31722 241.001 8.31722H237.25C236.509 8.31722 236.219 8.77652 236.551 9.48149L244.216 26.9491L243.598 28.2807C242.649 30.36 241.703 31.1504 240.754 31.1504C240.217 31.1504 239.642 30.9831 239.106 30.7338C238.527 30.4419 238.033 30.5273 237.747 31.1077L236.674 33.187C236.427 33.6855 236.47 34.1839 236.964 34.5578C237.952 35.3482 239.148 35.9285 240.796 35.9285C244.466 35.9285 246.608 33.1834 248.588 28.1098L255.882 9.47793C256.171 8.7694 255.924 8.31366 255.18 8.31366H251.591V8.31722ZM96.9419 17.9233C96.9419 14.8471 99.1263 12.807 101.723 12.807C104.321 12.807 106.463 14.8435 106.463 17.9233C106.463 20.9604 104.321 23.0397 101.723 23.0397C99.1298 23.0397 96.9419 20.9604 96.9419 17.9233ZM92.0403 17.966C92.0403 23.62 96.1197 27.5294 101.272 27.5294C103.58 27.5294 105.351 26.447 106.382 25.3255C106.339 29.2776 104.278 31.065 100.735 31.065C98.8404 31.065 97.0654 30.481 95.0045 29.153C94.4682 28.7791 93.8506 28.9038 93.5612 29.4841L92.3261 31.9373C92.0368 32.5212 92.1179 33.0588 92.6967 33.4327C95.2516 35.0954 98.2617 35.9285 100.859 35.9285C107.659 35.9285 111.41 32.2292 111.41 23.7019V9.31415C111.41 8.69107 111.04 8.31722 110.422 8.31722H107.62C107.003 8.31722 106.632 8.69107 106.632 9.31415V10.3965C105.521 9.02575 103.46 7.9861 101.399 7.9861C96.3667 7.98254 92.0403 12.3085 92.0403 17.966ZM126.291 17.966C126.291 15.0144 128.434 12.8497 131.073 12.8497C133.709 12.8497 135.855 15.0109 135.855 17.966C135.855 20.9177 133.713 23.0824 131.073 23.0824C128.434 23.0789 126.291 20.9177 126.291 17.966ZM121.302 17.966C121.302 23.7482 125.67 27.946 131.07 27.946C136.388 27.946 140.837 23.7447 140.837 17.966C140.837 12.1839 136.469 7.9861 131.07 7.9861C125.755 7.98254 121.302 12.1839 121.302 17.966ZM169.527 17.966C169.527 15.0144 171.669 12.8497 174.309 12.8497C176.945 12.8497 179.09 15.0109 179.09 17.966C179.09 20.9177 176.948 23.0824 174.309 23.0824C171.669 23.0789 169.527 20.9177 169.527 17.966ZM164.541 17.966C164.541 23.7482 168.91 27.946 174.309 27.946C179.627 27.946 184.077 23.7447 184.077 17.966C184.077 12.1839 179.708 7.9861 174.309 7.9861C168.991 7.98254 164.541 12.1839 164.541 17.966ZM191.332 17.966C191.332 14.929 193.474 12.8497 196.029 12.8497C198.584 12.8497 200.729 14.929 200.729 17.966C200.729 21.0423 198.587 23.0824 196.029 23.0824C193.474 23.0789 191.332 21.0423 191.332 17.966ZM191.124 10.4392V9.31771C191.124 8.69463 190.753 8.32078 190.136 8.32078H187.373C186.755 8.32078 186.385 8.69463 186.385 9.31771V34.6005C186.385 35.2236 186.755 35.5974 187.373 35.5974H190.422C191.039 35.5974 191.41 35.2236 191.41 34.6005V25.7421C192.606 26.9882 194.543 27.946 196.562 27.946C201.59 27.946 205.712 23.62 205.712 17.966C205.712 12.3085 201.509 7.9861 196.604 7.9861C194.3 7.98254 192.362 8.98302 191.124 10.4392ZM220.389 17.966C220.389 14.8898 222.534 12.8497 225.089 12.8497C227.644 12.8497 229.79 14.8863 229.79 17.966C229.79 21.0031 227.648 23.0824 225.089 23.0824C222.531 23.0789 220.389 20.9996 220.389 17.966ZM215.402 17.966C215.402 23.62 219.605 27.946 224.51 27.946C226.818 27.946 228.756 26.9491 229.991 25.4928V26.6144C229.991 27.2375 230.361 27.6113 230.979 27.6113H233.742C234.36 27.6113 234.73 27.2375 234.73 26.6144V9.31415C234.73 8.69107 234.36 8.31722 233.742 8.31722H230.979C230.361 8.31722 229.991 8.69107 229.991 9.31415V10.5211C228.837 9.10764 226.734 7.9861 224.549 7.9861C219.524 7.98254 215.402 12.3085 215.402 17.966ZM148.093 17.966C148.093 14.929 150.235 12.8497 152.793 12.8497C155.348 12.8497 157.494 14.929 157.494 17.966C157.494 21.0423 155.348 23.0824 152.793 23.0824C150.238 23.0789 148.093 21.0423 148.093 17.966ZM144.137 0.373848C143.519 0.373848 143.149 0.747695 143.149 1.37077V26.6144C143.149 27.2375 143.519 27.6113 144.137 27.6113H146.9C147.518 27.6113 147.888 27.2375 147.888 26.6144V25.532C149.084 26.9028 151.308 27.9424 153.492 27.9424C158.316 27.9424 162.476 23.5346 162.476 17.9625C162.476 12.3049 158.274 7.98254 153.368 7.98254C151.389 7.98254 149.451 8.85485 148.174 10.1865V1.37077C148.174 0.747695 147.803 0.373848 147.186 0.373848H144.137ZM209.012 0.373848C208.394 0.373848 208.024 0.747695 208.024 1.37077V26.6144C208.024 27.2375 208.394 27.6113 209.012 27.6113H212.103C212.721 27.6113 213.091 27.2375 213.091 26.6144V1.37077C213.091 0.747695 212.721 0.373848 212.103 0.373848H209.012ZM113.965 1.53812V26.4471C113.965 27.7787 114.791 28.3198 115.984 27.7787L117.55 27.0701C118.539 26.6108 118.994 25.9486 118.994 24.8662V3.11896C118.994 2.03658 118.539 1.37077 117.55 0.915037L115.984 0.206506C115.673 0.0676486 115.391 0 115.137 0C114.42 0 113.965 0.55187 113.965 1.53812Z" fill="white"/>
<path d="M5.32506 25.65C4.72868 25.3972 4.20641 25.0412 3.75824 24.5748C3.30655 24.1119 2.95366 23.56 2.69253 22.9191C2.43492 22.2818 2.30435 21.584 2.30435 20.8292C2.30435 20.0743 2.43492 19.3836 2.69253 18.7534C2.95013 18.1232 3.30302 17.5891 3.74413 17.1405C4.18524 16.6955 4.70398 16.3466 5.29683 16.0938C5.89321 15.841 6.53546 15.7163 7.22359 15.7163C7.91172 15.7163 8.5575 15.8374 9.15035 16.0795C9.7432 16.3216 10.269 16.6706 10.7172 17.1263C11.1689 17.582 11.5182 18.1232 11.7688 18.7534C12.0193 19.3836 12.1428 20.0743 12.1428 20.8292C12.1428 21.584 12.0193 22.2818 11.7688 22.9191C11.5182 23.5565 11.1689 24.1083 10.7172 24.5748C10.2655 25.0376 9.7432 25.3972 9.15035 25.65C8.55397 25.9028 7.91172 26.0274 7.22359 26.0274C6.5531 26.0274 5.91791 25.9028 5.32506 25.65ZM4.44637 14.1533C3.57474 14.52 2.80545 15.0256 2.14555 15.6629C1.48212 16.3003 0.959852 17.0622 0.578734 17.9416C0.190559 18.8211 0 19.7753 0 20.8007C0 21.8475 0.190559 22.8159 0.575205 23.706C0.959852 24.5961 1.4786 25.3652 2.12791 26.0132C2.78075 26.6612 3.54651 27.1739 4.42873 27.5513C5.31094 27.9287 6.24256 28.1174 7.22006 28.1174C8.19756 28.1174 9.12212 27.9287 9.99728 27.5513C10.8689 27.1739 11.6311 26.6612 12.284 26.0132C12.9368 25.3652 13.4556 24.5961 13.8367 23.706C14.2213 22.8159 14.4119 21.8475 14.4119 20.8007C14.4119 19.7753 14.2213 18.8211 13.8367 17.9416C13.452 17.0622 12.9333 16.3003 12.284 15.6629C11.6311 15.0256 10.8689 14.52 9.99728 14.1533C9.12565 13.7866 8.19756 13.6014 7.22006 13.6014C6.24609 13.6014 5.318 13.783 4.44637 14.1533Z" fill="white"/>
<path d="M18.2159 18.4187V14.1818C18.2159 13.9895 18.1312 13.8898 17.9583 13.8898H16.2891C16.0986 13.8898 15.9998 13.9753 15.9998 14.1498V27.5335C15.9998 27.7258 16.0844 27.8255 16.2574 27.8255H18.0112C18.2018 27.8255 18.3006 27.74 18.3006 27.5655V22.8907C18.3006 21.3419 18.5441 20.0245 19.0346 18.9421C19.5251 17.8597 20.1991 17.0836 21.0637 16.6207C21.3883 16.4284 21.7483 16.286 22.1435 16.2006C22.5352 16.1151 22.934 16.0617 23.3363 16.0404C23.5268 16.0404 23.6256 15.9549 23.6256 15.7804V13.8934C23.6256 13.7011 23.5409 13.6014 23.368 13.6014C20.7179 13.7154 19.0028 15.3247 18.2159 18.4187Z" fill="white"/>
<path d="M25.2385 13.8897C25.0479 13.8897 24.9491 13.9752 24.9491 14.1497V27.5334C24.9491 27.7257 25.0338 27.8254 25.2067 27.8254H26.9324C27.1229 27.8254 27.2217 27.7399 27.2217 27.5654V14.1817C27.2217 13.9894 27.137 13.8897 26.9641 13.8897H25.2385ZM24.8927 7.0964C24.6033 7.40616 24.4622 7.78357 24.4622 8.22863C24.4622 8.67368 24.6068 9.05465 24.8927 9.37509C25.182 9.69553 25.5843 9.85575 26.0996 9.85575C26.5971 9.85575 26.9924 9.69553 27.2782 9.37509C27.5676 9.05465 27.7087 8.67368 27.7087 8.22863C27.7087 7.78357 27.564 7.40616 27.2782 7.0964C26.9888 6.78664 26.5971 6.63354 26.0996 6.63354C25.5808 6.63354 25.1785 6.78664 24.8927 7.0964Z" fill="white"/>
<path d="M34.2724 25.0696C33.7149 24.856 33.2279 24.5427 32.8044 24.1261C32.3809 23.7095 32.0528 23.2004 31.8128 22.6022C31.5728 22.0041 31.4529 21.3169 31.4529 20.5407C31.4529 19.7681 31.5834 19.0738 31.841 18.465C32.0986 17.8562 32.4409 17.347 32.8609 16.9411C33.2843 16.5352 33.7678 16.2255 34.3148 16.0118C34.8617 15.7982 35.4334 15.6914 36.0263 15.6914C36.6579 15.6914 37.2543 15.8125 37.8119 16.0546C38.3694 16.2967 38.8494 16.6349 39.2517 17.0693C39.6539 17.5037 39.9751 18.0199 40.215 18.6074C40.455 19.1985 40.575 19.8429 40.575 20.5372C40.575 21.2742 40.455 21.9364 40.215 22.5275C39.9751 23.1185 39.6539 23.6277 39.2517 24.0514C38.8494 24.4786 38.3694 24.8062 37.8119 25.0376C37.2543 25.269 36.6615 25.3865 36.0263 25.3865C35.4158 25.3901 34.83 25.2833 34.2724 25.0696ZM33.0938 14.0928C32.3245 14.4025 31.6434 14.8583 31.0506 15.4564C30.4542 16.0581 29.9813 16.7845 29.6249 17.6354C29.2685 18.4864 29.092 19.4441 29.092 20.5087C29.092 21.5946 29.265 22.556 29.6108 23.3962C29.9566 24.2401 30.4224 24.9593 31.0082 25.561C31.594 26.1627 32.2751 26.6149 33.0514 26.9246C33.8278 27.2344 34.65 27.3875 35.511 27.3875C36.545 27.3875 37.5049 27.1489 38.3871 26.6754C39.2693 26.2019 39.9786 25.472 40.515 24.4822V25.9633C40.515 27.5904 40.0456 28.8437 39.1034 29.7232C38.1648 30.6026 36.8591 31.0441 35.1899 31.0441C34.403 31.0441 33.6302 30.9586 32.8715 30.7842C32.1128 30.6097 31.407 30.3391 30.7577 29.9724C30.6024 29.9154 30.5001 29.8869 30.4401 29.8869C30.2848 29.8869 30.2107 30.0115 30.2107 30.2643V31.628C30.2107 31.8416 30.2883 31.9769 30.4401 32.0339C31.0717 32.3828 31.8128 32.6427 32.6562 32.8172C33.4996 32.9916 34.4206 33.0771 35.4193 33.0771C36.5309 33.0771 37.5472 32.9062 38.4682 32.568C39.3893 32.2297 40.1762 31.7348 40.8291 31.0868C41.4819 30.4388 41.9865 29.6413 42.3394 28.6906C42.6923 27.7435 42.8723 26.6576 42.8723 25.4399V14.1818C42.8723 13.9895 42.7876 13.8898 42.6147 13.8898H40.8608C40.6703 13.8898 40.5714 13.9753 40.5714 14.1497V16.5886C40.0139 15.5632 39.2905 14.812 38.3977 14.3384C37.5049 13.8649 36.5415 13.6263 35.504 13.6263C34.6641 13.6299 33.8595 13.783 33.0938 14.0928Z" fill="white"/>
<path d="M45.8401 13.8897C45.6495 13.8897 45.5507 13.9752 45.5507 14.1497V27.5334C45.5507 27.7257 45.6354 27.8254 45.8083 27.8254H47.5339C47.7245 27.8254 47.8198 27.7399 47.8198 27.5654V14.1817C47.8198 13.9894 47.7351 13.8897 47.5622 13.8897H45.8401ZM45.4942 7.0964C45.2084 7.40616 45.0637 7.78357 45.0637 8.22863C45.0637 8.67368 45.2084 9.05465 45.4942 9.37509C45.7836 9.69553 46.1859 9.85575 46.7046 9.85575C47.2022 9.85575 47.5974 9.69553 47.8833 9.37509C48.1726 9.05465 48.3138 8.67368 48.3138 8.22863C48.3138 7.78357 48.1691 7.40616 47.8833 7.0964C47.5939 6.78664 47.2022 6.63354 46.7046 6.63354C46.1859 6.63354 45.7836 6.78664 45.4942 7.0964Z" fill="white"/>
<path d="M54.634 14.2103C53.8753 14.6162 53.2683 15.2072 52.806 15.9798V14.1782C52.806 13.986 52.7213 13.8863 52.5484 13.8863H50.851C50.6605 13.8863 50.5652 13.9717 50.5652 14.1462V27.5299C50.5652 27.7222 50.6499 27.8219 50.8228 27.8219H52.5766C52.7672 27.8219 52.866 27.7364 52.866 27.562V19.7254C52.866 18.4686 53.2118 17.461 53.9035 16.7062C54.5952 15.9513 55.5338 15.5739 56.7231 15.5739C57.757 15.5739 58.5934 15.8552 59.225 16.4142C59.8567 16.9768 60.1743 17.8953 60.1743 19.1736V27.5371C60.1743 27.7293 60.259 27.829 60.4354 27.829H62.161C62.3516 27.829 62.4504 27.7436 62.4504 27.5691V19.1451C62.4504 17.2473 61.974 15.8481 61.0247 14.9509C60.0755 14.0501 58.8333 13.6014 57.2983 13.6014C56.2784 13.6014 55.3891 13.8044 54.634 14.2103Z" fill="white"/>
<path d="M69.4092 25.6357C68.834 25.3936 68.3223 25.0518 67.8706 24.6067C67.4189 24.1616 67.066 23.6205 66.8049 22.9796C66.5473 22.3423 66.4167 21.6266 66.4167 20.8291C66.4167 20.0564 66.5402 19.3586 66.7908 18.7391C67.0413 18.1196 67.3836 17.589 67.8247 17.1404C68.2658 16.6954 68.774 16.3536 69.3492 16.1115C69.9244 15.8693 70.549 15.7483 71.2195 15.7483C71.8724 15.7483 72.4899 15.8693 73.0757 16.1115C73.6615 16.3536 74.1626 16.6918 74.5861 17.1262C75.006 17.5606 75.3448 18.0946 75.5918 18.7248C75.8423 19.355 75.9658 20.0564 75.9658 20.8291C75.9658 21.623 75.8423 22.3387 75.5918 22.9796C75.3412 23.6169 75.0025 24.1616 74.5684 24.6067C74.1379 25.0518 73.6333 25.3971 73.0581 25.6357C72.4828 25.8778 71.8688 25.9988 71.216 25.9988C70.5878 25.9988 69.9844 25.8778 69.4092 25.6357ZM68.3294 14.0927C67.5142 14.4202 66.7908 14.8973 66.1556 15.5169C65.5239 16.1364 65.0122 16.8912 64.6311 17.7813C64.2465 18.6714 64.0559 19.679 64.0559 20.8006C64.0559 21.9435 64.2535 22.9653 64.6452 23.8626C65.0369 24.7634 65.5557 25.5289 66.1979 26.1555C66.8402 26.7857 67.5636 27.2628 68.3717 27.5939C69.1763 27.9215 69.9915 28.0888 70.8172 28.0888C71.89 28.0888 72.8922 27.8432 73.8238 27.3482C74.7554 26.8533 75.4612 26.1235 75.9376 25.155V27.537C75.9376 27.7292 76.0258 27.8289 76.1952 27.8289H77.9526C78.1432 27.8289 78.2384 27.7435 78.2384 27.569V14.1817C78.2384 13.9894 78.1537 13.8897 77.9808 13.8897H76.227C76.0364 13.8897 75.9376 13.9752 75.9376 14.1496L75.9094 16.4141C75.4083 15.4457 74.7131 14.7336 73.8238 14.2814C72.931 13.8256 71.9394 13.5978 70.8454 13.5978C69.9844 13.6013 69.1445 13.7651 68.3294 14.0927Z" fill="white"/>
<path d="M81.0615 6.08169C80.8709 6.08169 80.7756 6.16714 80.7756 6.3416V24.7491C80.7756 25.9312 81.0509 26.7857 81.5943 27.3198C82.1413 27.8503 82.9035 28.1173 83.881 28.1173C84.2445 28.1173 84.6151 28.0817 84.9891 28.0141C85.3632 27.9464 85.6949 27.8539 85.9807 27.7399C86.1536 27.6616 86.2383 27.537 86.2383 27.3625V26.0843C86.2383 25.9098 86.1995 25.8244 86.1219 25.8244C86.0831 25.8244 86.0266 25.8458 85.949 25.8814C85.5079 26.0736 85.0667 26.1733 84.6256 26.1733C84.1281 26.1733 83.7434 26.0416 83.4752 25.7817C83.207 25.5218 83.0729 25.0803 83.0729 24.4607V6.37008C83.0729 6.17782 82.9882 6.07812 82.8153 6.07812H81.0615V6.08169Z" fill="white"/>
</svg>
